<?xml version="1.0" encoding="iso-8859-1"?>
<!-- Generator: Adobe Illustrator 16.0.0, SVG Export Plug-In . SVG Version: 6.00 Build 0)  -->
<!DOCTYPE svg PUBLIC "-//W3C//DTD SVG 1.1//EN" "http://www.w3.org/Graphics/SVG/1.1/DTD/svg11.dtd">
<svg version="1.1" id="Capa_1" xmlns="http://www.w3.org/2000/svg" xmlns:xlink="http://www.w3.org/1999/xlink" x="0px" y="0px"
	 width="70.074px" height="70.074px" viewBox="0 0 70.074 70.074" style="enable-background:new 0 0 70.074 70.074;"
	 xml:space="preserve">
<g>
	<g>
		<polygon points="4.125,16.253 4.125,18.313 63.893,18.313 63.893,53.819 65.95,53.819 65.95,16.253 		"/>
		<polygon points="8.243,12.13 8.243,14.193 68.015,14.193 68.015,49.692 70.074,49.692 70.074,12.13 		"/>
		<g>
			<path d="M0,20.376v37.567h61.83V20.376H0z M30.912,53.044c-7.666,0-13.884-6.219-13.884-13.883c0-7.671,6.218-13.89,13.884-13.89
				c7.67,0,13.888,6.218,13.888,13.89C44.805,46.825,38.586,53.044,30.912,53.044z"/>
			<path d="M35.306,38.924c-0.668-0.461-1.937-0.953-3.806-1.474v-5.885c1.112,0.04,1.92,0.464,2.427,1.28
				c0.274,0.441,0.439,0.972,0.493,1.584h2.117c-0.045-1.366-0.493-2.467-1.351-3.296c-0.854-0.832-2.088-1.304-3.686-1.416v-1.582
				h-1.146v1.607c-1.618,0.017-2.875,0.517-3.777,1.5c-0.896,0.981-1.345,2.086-1.345,3.31c0,1.37,0.417,2.442,1.249,3.212
				c0.831,0.771,2.126,1.321,3.873,1.656v6.581c-1.364-0.114-2.292-0.627-2.796-1.53c-0.288-0.507-0.462-1.314-0.525-2.418h-2.14
				c0,1.392,0.228,2.483,0.689,3.298c0.836,1.511,2.427,2.336,4.772,2.489v2.34H31.5v-2.34c1.455-0.162,2.572-0.493,3.345-0.99
				c1.396-0.901,2.093-2.423,2.093-4.566C36.934,40.799,36.395,39.679,35.306,38.924z M30.354,37.222
				c-0.902-0.178-1.616-0.492-2.151-0.939c-0.535-0.451-0.8-1.078-0.8-1.875c0-0.66,0.227-1.292,0.675-1.896
				c0.451-0.604,1.212-0.925,2.275-0.967V37.222z M34.351,44.554c-0.523,0.938-1.474,1.443-2.85,1.505v-6.35
				c1.007,0.273,1.72,0.561,2.148,0.866c0.739,0.529,1.114,1.291,1.114,2.297C34.763,43.509,34.624,44.07,34.351,44.554z"/>
		</g>
	</g>
</g>
<g>
</g>
<g>
</g>
<g>
</g>
<g>
</g>
<g>
</g>
<g>
</g>
<g>
</g>
<g>
</g>
<g>
</g>
<g>
</g>
<g>
</g>
<g>
</g>
<g>
</g>
<g>
</g>
<g>
</g>
</svg>
